<svg width="10" height="11" viewBox="0 0 10 11" fill="none" xmlns="http://www.w3.org/2000/svg">
<g clip-path="url(#clip0_144_34)">
<path d="M0 9.5C0 9.76522 0.105357 10.0196 0.292893 10.2071C0.48043 10.3946 0.734784 10.5 1 10.5H9C9.26522 10.5 9.51957 10.3946 9.70711 10.2071C9.89464 10.0196 10 9.76522 10 9.5V4.5H0V9.5ZM7 5.75C7 5.6837 7.02634 5.62011 7.07322 5.57322C7.12011 5.52634 7.1837 5.5 7.25 5.5H7.75C7.8163 5.5 7.87989 5.52634 7.92678 5.57322C7.97366 5.62011 8 5.6837 8 5.75V6.25C8 6.3163 7.97366 6.37989 7.92678 6.42678C7.87989 6.47366 7.8163 6.5 7.75 6.5H7.25C7.1837 6.5 7.12011 6.47366 7.07322 6.42678C7.02634 6.37989 7 6.3163 7 6.25V5.75ZM7 7.75C7 7.6837 7.02634 7.62011 7.07322 7.57322C7.12011 7.52634 7.1837 7.5 7.25 7.5H7.75C7.8163 7.5 7.87989 7.52634 7.92678 7.57322C7.97366 7.62011 8 7.6837 8 7.75V8.25C8 8.3163 7.97366 8.37989 7.92678 8.42678C7.87989 8.47366 7.8163 8.5 7.75 8.5H7.25C7.1837 8.5 7.12011 8.47366 7.07322 8.42678C7.02634 8.37989 7 8.3163 7 8.25V7.75ZM4.5 5.75C4.5 5.6837 4.52634 5.62011 4.57322 5.57322C4.62011 5.52634 4.6837 5.5 4.75 5.5H5.25C5.3163 5.5 5.37989 5.52634 5.42678 5.57322C5.47366 5.62011 5.5 5.6837 5.5 5.75V6.25C5.5 6.3163 5.47366 6.37989 5.42678 6.42678C5.37989 6.47366 5.3163 6.5 5.25 6.5H4.75C4.6837 6.5 4.62011 6.47366 4.57322 6.42678C4.52634 6.37989 4.5 6.3163 4.5 6.25V5.75ZM4.5 7.75C4.5 7.6837 4.52634 7.62011 4.57322 7.57322C4.62011 7.52634 4.6837 7.5 4.75 7.5H5.25C5.3163 7.5 5.37989 7.52634 5.42678 7.57322C5.47366 7.62011 5.5 7.6837 5.5 7.75V8.25C5.5 8.3163 5.47366 8.37989 5.42678 8.42678C5.37989 8.47366 5.3163 8.5 5.25 8.5H4.75C4.6837 8.5 4.62011 8.47366 4.57322 8.42678C4.52634 8.37989 4.5 8.3163 4.5 8.25V7.75ZM2 5.75C2 5.6837 2.02634 5.62011 2.07322 5.57322C2.12011 5.52634 2.1837 5.5 2.25 5.5H2.75C2.8163 5.5 2.87989 5.52634 2.92678 5.57322C2.97366 5.62011 3 5.6837 3 5.75V6.25C3 6.3163 2.97366 6.37989 2.92678 6.42678C2.87989 6.47366 2.8163 6.5 2.75 6.5H2.25C2.1837 6.5 2.12011 6.47366 2.07322 6.42678C2.02634 6.37989 2 6.3163 2 6.25V5.75ZM2 7.75C2 7.6837 2.02634 7.62011 2.07322 7.57322C2.12011 7.52634 2.1837 7.5 2.25 7.5H2.75C2.8163 7.5 2.87989 7.52634 2.92678 7.57322C2.97366 7.62011 3 7.6837 3 7.75V8.25C3 8.3163 2.97366 8.37989 2.92678 8.42678C2.87989 8.47366 2.8163 8.5 2.75 8.5H2.25C2.1837 8.5 2.12011 8.47366 2.07322 8.42678C2.02634 8.37989 2 8.3163 2 8.25V7.75Z" fill="#111928"/>
<path d="M10 2.5C10 2.23478 9.89464 1.98043 9.70711 1.79289C9.51957 1.60536 9.26522 1.5 9 1.5H8V1C8 0.867392 7.94732 0.740215 7.85355 0.646447C7.75979 0.552678 7.63261 0.5 7.5 0.5C7.36739 0.5 7.24021 0.552678 7.14645 0.646447C7.05268 0.740215 7 0.867392 7 1V1.5H5.5V1C5.5 0.867392 5.44732 0.740215 5.35355 0.646447C5.25979 0.552678 5.13261 0.5 5 0.5C4.86739 0.5 4.74021 0.552678 4.64645 0.646447C4.55268 0.740215 4.5 0.867392 4.5 1V1.5H3V1C3 0.867392 2.94732 0.740215 2.85355 0.646447C2.75979 0.552678 2.63261 0.5 2.5 0.5C2.36739 0.5 2.24021 0.552678 2.14645 0.646447C2.05268 0.740215 2 0.867392 2 1V1.5H1C0.734784 1.5 0.48043 1.60536 0.292893 1.79289C0.105357 1.98043 0 2.23478 0 2.5V3.5H10V2.5Z" fill="#111928"/>
</g>
<defs>
<clipPath id="clip0_144_34">
<rect width="10" height="10" fill="white" transform="translate(0 0.5)"/>
</clipPath>
</defs>
</svg>
