<svg width="10" height="11" viewBox="0 0 10 11" fill="none" xmlns="http://www.w3.org/2000/svg">
<g clip-path="url(#clip0_5_5319)">
<path d="M5 0.5C4.0111 0.5 3.0444 0.793245 2.22215 1.34265C1.3999 1.89206 0.759043 2.67295 0.380605 3.58658C0.00216642 4.50021 -0.0968502 5.50555 0.0960758 6.47545C0.289002 7.44535 0.765206 8.33627 1.46447 9.03553C2.16373 9.73479 3.05465 10.211 4.02455 10.4039C4.99445 10.5969 5.99979 10.4978 6.91342 10.1194C7.82705 9.74096 8.60794 9.10009 9.15735 8.27785C9.70675 7.4556 10 6.4889 10 5.5C9.99854 4.17436 9.47129 2.90344 8.53393 1.96607C7.59656 1.02871 6.32564 0.501456 5 0.5ZM6.991 7.491C6.89724 7.58473 6.77008 7.63739 6.6375 7.63739C6.50492 7.63739 6.37777 7.58473 6.284 7.491L4.647 5.854C4.55347 5.75984 4.50068 5.63271 4.5 5.5V3.5C4.5 3.36739 4.55268 3.24021 4.64645 3.14645C4.74022 3.05268 4.86739 3 5 3C5.13261 3 5.25979 3.05268 5.35355 3.14645C5.44732 3.24021 5.5 3.36739 5.5 3.5V5.293L6.991 6.784C7.08474 6.87776 7.13739 7.00492 7.13739 7.1375C7.13739 7.27008 7.08474 7.39723 6.991 7.491Z" fill="#050D1B"/>
</g>
<defs>
<clipPath id="clip0_5_5319">
<rect width="10" height="10" fill="white" transform="translate(0 0.5)"/>
</clipPath>
</defs>
</svg>
