<svg width="135" height="36" viewBox="0 0 135 36" fill="none" xmlns="http://www.w3.org/2000/svg">
<path fill-rule="evenodd" clip-rule="evenodd" d="M6.04188 28.9273L6.37307 25.5447H2.5092C2.16377 25.5556 1.81987 25.4961 1.50049 25.3701C1.1811 25.2441 0.893592 25.0546 0.657164 24.8141C0.420736 24.5737 0.240837 24.2879 0.12949 23.9758C0.0181435 23.6637 -0.0220874 23.3326 0.0114864 23.0045C0.102579 22.3105 0.457099 21.6723 1.00802 21.2107C1.55894 20.7491 2.26809 20.496 3.00138 20.4993L6.86525 20.5388L7.61042 12.9444L3.88915 12.861C3.54086 12.8624 3.19612 12.7944 2.87705 12.6612C2.55798 12.528 2.27165 12.3326 2.03644 12.0876C1.80122 11.8426 1.62234 11.5534 1.51126 11.2385C1.40018 10.9237 1.35936 10.5901 1.39144 10.2594C1.47624 9.5697 1.82884 8.93537 2.37973 8.4814C2.93062 8.02743 3.63982 7.78677 4.36754 7.80685L8.08421 7.9297L8.4292 4.41986C8.50243 3.73657 8.84654 3.10578 9.39118 2.65644C9.93581 2.2071 10.6398 1.97316 11.3593 2.00245C11.6993 2.01289 12.0333 2.0898 12.3408 2.22843C12.6484 2.36706 12.9227 2.56445 13.147 2.80837C13.3712 3.05228 13.5406 3.33753 13.6445 3.64643C13.7485 3.95533 13.7848 4.28129 13.7512 4.60412L13.4062 8.11397L21.2582 8.36843L21.5893 5.05163C21.6573 4.40169 21.9786 3.79977 22.4898 3.36508C23.0009 2.93038 23.6645 2.6946 24.3492 2.70442C24.6793 2.71579 25.0034 2.79198 25.3011 2.92823C25.5989 3.06448 25.864 3.25786 26.0799 3.49628C26.2957 3.73469 26.4577 4.01302 26.5557 4.31386C26.6536 4.61469 26.6854 4.93157 26.6492 5.24467L26.318 8.53076L29.7587 8.64483C30.081 8.65266 30.3979 8.72504 30.689 8.85726C30.9801 8.98949 31.2388 9.17861 31.4483 9.41235C31.6578 9.64609 31.8134 9.91923 31.9051 10.214C31.9967 10.5089 32.0224 10.8188 31.9804 11.1237C31.9142 11.7645 31.6009 12.359 31.1011 12.7919C30.6013 13.2248 29.9508 13.4652 29.2757 13.4665L25.835 13.3875L25.099 20.7318L28.4155 20.7669C28.7348 20.7682 29.0501 20.8342 29.3406 20.9605C29.6312 21.0867 29.8903 21.2704 30.1008 21.4994C30.3112 21.7284 30.4683 21.9974 30.5616 22.2886C30.6549 22.5799 30.6822 22.8867 30.6418 23.1887C30.5698 23.8324 30.2556 24.4294 29.7574 24.869C29.2593 25.3087 28.6109 25.5612 27.9325 25.5798H24.6206L24.2802 28.98C24.2026 29.6348 23.8815 30.2414 23.3752 30.6897C22.8688 31.1381 22.2108 31.3985 21.5203 31.4237C21.196 31.4303 20.874 31.3704 20.576 31.2481C20.278 31.1258 20.011 30.9439 19.793 30.7148C19.575 30.4856 19.4111 30.2145 19.3123 29.9198C19.2135 29.6251 19.1822 29.3136 19.2204 29.0063L19.5654 25.5754H11.6997L11.3685 28.9273C11.275 29.6023 10.9306 30.2229 10.3979 30.6762C9.86526 31.1295 9.17973 31.3854 8.46599 31.3974C8.12936 31.4099 7.79383 31.3532 7.48225 31.231C7.17067 31.1088 6.89034 30.924 6.66033 30.6892C6.43032 30.4544 6.25603 30.1751 6.14931 29.8703C6.04259 29.5656 6.00595 29.2424 6.04188 28.9229V28.9273ZM15.444 26.9223C13.213 24.97 9.78615 21.5654 10.1311 18.2793C10.1835 17.4434 10.4145 16.6264 10.81 15.8787C11.2055 15.1311 11.7572 14.4684 12.4311 13.9315C13.6691 12.9141 15.2592 12.3715 16.8929 12.4091C17.6584 12.4158 18.4144 12.571 19.115 12.8651C19.8156 13.1593 20.4462 13.5863 20.9684 14.1202C22.0693 15.2112 22.5292 16.6546 22.3483 18.4505C22.0401 21.5523 18.2085 25.3429 15.4486 26.9223H15.444Z" fill="#F2761B"/>
<path fill-rule="evenodd" clip-rule="evenodd" d="M16.1108 20.3984C16.698 20.3954 17.2636 20.1869 17.7003 19.8125C18.137 19.438 18.4143 18.9237 18.4797 18.3671C18.5107 18.1037 18.4832 17.8371 18.399 17.5845C18.3147 17.332 18.1756 17.0992 17.9907 16.9013C17.8059 16.7035 17.5794 16.545 17.326 16.4362C17.0726 16.3274 16.798 16.2708 16.5202 16.27C15.9288 16.2678 15.3575 16.4746 14.9166 16.8505C14.4758 17.2265 14.1965 17.7449 14.1328 18.3057C14.1016 18.5703 14.1296 18.8383 14.2149 19.0918C14.3003 19.3454 14.4411 19.5788 14.6281 19.7766C14.815 19.9744 15.0439 20.1321 15.2994 20.2393C15.555 20.3465 15.8316 20.4007 16.1108 20.3984Z" fill="#F2761B"/>
<path d="M45.776 27V14.904H48.2V27H45.776ZM45.584 12.384V9.864H48.392V12.384H45.584ZM51.7526 27V17.808C51.7526 17.344 51.7286 16.872 51.6806 16.392C51.6486 15.896 51.6086 15.4 51.5606 14.904H53.9126L54.1286 17.448H53.8406C54.2086 16.552 54.7766 15.872 55.5446 15.408C56.3126 14.928 57.2006 14.688 58.2086 14.688C59.6326 14.688 60.7046 15.08 61.4246 15.864C62.1606 16.648 62.5286 17.864 62.5286 19.512V27H60.1046V19.656C60.1046 18.584 59.8886 17.816 59.4566 17.352C59.0406 16.872 58.4006 16.632 57.5366 16.632C56.5126 16.632 55.6966 16.952 55.0886 17.592C54.4806 18.216 54.1766 19.064 54.1766 20.136V27H51.7526ZM70.6831 27.216C69.3711 27.216 68.3791 26.864 67.7071 26.16C67.0351 25.44 66.6991 24.368 66.6991 22.944V16.776H64.3471V14.904H66.6991V11.712L69.1231 11.064V14.904H72.4831V16.776H69.1231V22.728C69.1231 23.624 69.2831 24.264 69.6031 24.648C69.9231 25.032 70.3871 25.224 70.9951 25.224C71.2991 25.224 71.5631 25.2 71.7871 25.152C72.0271 25.088 72.2431 25.016 72.4351 24.936V26.904C72.1951 27 71.9151 27.072 71.5951 27.12C71.2751 27.184 70.9711 27.216 70.6831 27.216ZM80.1727 27.216C78.2207 27.216 76.6847 26.664 75.5647 25.56C74.4447 24.456 73.8847 22.928 73.8847 20.976C73.8847 19.712 74.1247 18.608 74.6047 17.664C75.1007 16.72 75.7807 15.992 76.6447 15.48C77.5247 14.952 78.5407 14.688 79.6927 14.688C80.8287 14.688 81.7807 14.928 82.5487 15.408C83.3167 15.888 83.9007 16.568 84.3007 17.448C84.7007 18.312 84.9007 19.336 84.9007 20.52V21.288H75.7807V19.896H83.2447L82.8367 20.208C82.8367 19.008 82.5647 18.08 82.0207 17.424C81.4927 16.752 80.7247 16.416 79.7167 16.416C78.5967 16.416 77.7327 16.808 77.1247 17.592C76.5167 18.36 76.2127 19.424 76.2127 20.784V21.024C76.2127 22.448 76.5567 23.52 77.2447 24.24C77.9487 24.96 78.9407 25.32 80.2207 25.32C80.9247 25.32 81.5807 25.224 82.1887 25.032C82.8127 24.824 83.4047 24.488 83.9647 24.024L84.7567 25.68C84.1967 26.176 83.5167 26.56 82.7167 26.832C81.9167 27.088 81.0687 27.216 80.1727 27.216ZM87.6343 27V17.904C87.6343 17.408 87.6183 16.912 87.5863 16.416C87.5703 15.904 87.5383 15.4 87.4902 14.904H89.8423L90.1063 18.024H89.7223C89.8823 17.272 90.1543 16.648 90.5383 16.152C90.9223 15.656 91.3863 15.288 91.9303 15.048C92.4903 14.808 93.0743 14.688 93.6823 14.688C93.9383 14.688 94.1543 14.704 94.3303 14.736C94.5063 14.752 94.6823 14.784 94.8583 14.832L94.8343 16.992C94.5623 16.88 94.3223 16.816 94.1143 16.8C93.9223 16.768 93.6823 16.752 93.3943 16.752C92.6903 16.752 92.0903 16.912 91.5943 17.232C91.0983 17.536 90.7223 17.952 90.4663 18.48C90.2103 19.008 90.0823 19.576 90.0823 20.184V27H87.6343ZM101.869 27.216C100.653 27.216 99.5891 26.968 98.6771 26.472C97.7811 25.96 97.0851 25.232 96.5891 24.288C96.1091 23.328 95.8691 22.192 95.8691 20.88C95.8691 19.584 96.1171 18.472 96.6131 17.544C97.1091 16.616 97.8051 15.912 98.7011 15.432C99.5971 14.936 100.653 14.688 101.869 14.688C102.653 14.688 103.413 14.824 104.149 15.096C104.885 15.352 105.493 15.72 105.973 16.2L105.181 17.904C104.733 17.472 104.229 17.152 103.669 16.944C103.109 16.72 102.565 16.608 102.037 16.608C100.885 16.608 99.9811 16.976 99.3251 17.712C98.6691 18.448 98.3411 19.512 98.3411 20.904C98.3411 22.312 98.6691 23.392 99.3251 24.144C99.9811 24.896 100.885 25.272 102.037 25.272C102.549 25.272 103.085 25.176 103.645 24.984C104.205 24.776 104.717 24.448 105.181 24L105.973 25.704C105.477 26.184 104.853 26.56 104.101 26.832C103.365 27.088 102.621 27.216 101.869 27.216ZM108.542 27V14.904H110.966V27H108.542ZM108.35 12.384V9.864H111.158V12.384H108.35ZM119.222 27.216C117.91 27.216 116.918 26.864 116.246 26.16C115.574 25.44 115.238 24.368 115.238 22.944V16.776H112.886V14.904H115.238V11.712L117.662 11.064V14.904H121.022V16.776H117.662V22.728C117.662 23.624 117.822 24.264 118.142 24.648C118.462 25.032 118.926 25.224 119.534 25.224C119.838 25.224 120.102 25.2 120.326 25.152C120.566 25.088 120.782 25.016 120.974 24.936V26.904C120.734 27 120.454 27.072 120.134 27.12C119.814 27.184 119.51 27.216 119.222 27.216ZM123.041 32.448L122.465 30.48C123.217 30.32 123.841 30.128 124.337 29.904C124.849 29.68 125.273 29.384 125.609 29.016C125.945 28.664 126.233 28.208 126.473 27.648L127.073 26.232L127.025 27.216L121.769 14.904H124.361L128.441 24.984H127.793L131.873 14.904H134.369L128.825 27.864C128.473 28.664 128.097 29.336 127.697 29.88C127.297 30.424 126.865 30.864 126.401 31.2C125.937 31.536 125.425 31.8 124.865 31.992C124.305 32.184 123.697 32.336 123.041 32.448Z" fill="#111928"/>
</svg>
