<svg width="16" height="17" viewBox="0 0 16 17" fill="none" xmlns="http://www.w3.org/2000/svg">
<g clip-path="url(#clip0_144_40)">
<path d="M7.99963 1H8.00007C9.11595 1.00007 10.2099 1.28981 11.1659 1.83705C12.1217 2.38421 12.903 3.16771 13.4293 4.10251C13.9554 5.03712 14.2077 6.08926 14.1612 7.14793C14.1146 8.20662 13.7708 9.23514 13.164 10.1246L13.1443 10.1534L13.1288 10.1847C13.1203 10.202 13.1093 10.2188 13.0958 10.2345L13.095 10.2354L12.9892 10.3594L12.9802 10.37L12.9717 10.381C12.8348 10.5608 12.6869 10.7328 12.5287 10.8961L12.5179 10.9073L12.5077 10.9191L8.2645 15.8828C8.26443 15.8829 8.26436 15.883 8.26429 15.883C8.2345 15.9178 8.19575 15.9472 8.14992 15.968C8.10393 15.9889 8.05277 16 8.00033 16L7.99915 16C7.94686 16.0001 7.89582 15.9891 7.84989 15.9684L7.64465 16.4243L7.84989 15.9684C7.80425 15.9478 7.76557 15.9187 7.73573 15.8843C7.73557 15.8841 7.73541 15.8839 7.73525 15.8837L3.36534 10.7858L3.36544 10.7857L3.35797 10.7774C3.28113 10.6917 3.19109 10.5865 3.1036 10.4778L3.09881 10.4718L3.09385 10.466L2.99385 10.3492L2.99317 10.3484C2.97837 10.3312 2.9659 10.3129 2.95579 10.2938L2.9398 10.2636L2.91985 10.2359C2.28311 9.35125 1.91201 8.3182 1.84451 7.24879C1.77702 6.17941 2.01548 5.11168 2.53566 4.16086C3.05594 3.20983 3.83895 2.41085 4.8022 1.85264C5.76558 1.29436 6.8714 0.998945 7.99963 1ZM9.65904 4.48361C9.16629 4.16755 8.58902 4 8.0001 4C7.21087 4 6.45005 4.30078 5.886 4.84224C5.32125 5.38438 4.99999 6.12413 4.99999 6.9C4.99999 7.47823 5.17872 8.04168 5.51096 8.51901C5.84302 8.99607 6.3128 9.3649 6.85861 9.58193C7.40427 9.7989 8.00361 9.85538 8.58163 9.74501C9.15972 9.63463 9.69341 9.3617 10.1142 8.95776C10.5352 8.55361 10.8244 8.03616 10.9418 7.46967C11.0592 6.90301 10.9987 6.31589 10.769 5.78347C10.5394 5.25131 10.152 4.7998 9.65904 4.48361Z" fill="#6B7280" stroke="#6B7280"/>
</g>
<defs>
<clipPath id="clip0_144_40">
<rect width="16" height="16" fill="white" transform="translate(0 0.5)"/>
</clipPath>
</defs>
</svg>
