<svg width="12" height="13" viewBox="0 0 12 13" fill="none" xmlns="http://www.w3.org/2000/svg">
<g clip-path="url(#clip0_5_5340)">
<path d="M6 0.5C4.93561 0.508135 3.91338 0.913924 3.13702 1.63651C2.36065 2.35909 1.88716 3.34541 1.81089 4.39893C1.73462 5.45244 2.06117 6.49579 2.72547 7.32108C3.38978 8.14636 4.34306 8.69298 5.39535 8.852V11.9C5.39535 12.0591 5.45905 12.2117 5.57245 12.3243C5.68584 12.4368 5.83964 12.5 6 12.5C6.16037 12.5 6.31416 12.4368 6.42756 12.3243C6.54095 12.2117 6.60466 12.0591 6.60466 11.9V8.852C7.65695 8.69298 8.61023 8.14636 9.27453 7.32108C9.93884 6.49579 10.2654 5.45244 10.1891 4.39893C10.1128 3.34541 9.63935 2.35909 8.86299 1.63651C8.08663 0.913924 7.0644 0.508135 6 0.5ZM6 3.8C5.75946 3.8 5.52876 3.89482 5.35867 4.0636C5.18858 4.23239 5.09302 4.46131 5.09302 4.7C5.09302 4.85913 5.02931 5.01174 4.91592 5.12426C4.80252 5.23679 4.64873 5.3 4.48836 5.3C4.328 5.3 4.1742 5.23679 4.06081 5.12426C3.94741 5.01174 3.88371 4.85913 3.88371 4.7C3.88371 4.14305 4.10667 3.6089 4.50356 3.21508C4.90044 2.82125 5.43873 2.6 6 2.6C6.16037 2.6 6.31416 2.66321 6.42756 2.77574C6.54095 2.88826 6.60466 3.04087 6.60466 3.2C6.60466 3.35913 6.54095 3.51174 6.42756 3.62426C6.31416 3.73679 6.16037 3.8 6 3.8Z" fill="#6B7280"/>
</g>
<defs>
<clipPath id="clip0_5_5340">
<rect width="12" height="12" fill="white" transform="translate(0 0.5)"/>
</clipPath>
</defs>
</svg>
