<svg width="16" height="16" viewBox="0 0 16 16" fill="none" xmlns="http://www.w3.org/2000/svg">
<path d="M7.99997 1.33301C6.25331 1.33301 4.83331 2.75301 4.83331 4.49967C4.83331 6.21301 6.17331 7.59967 7.91997 7.65967C7.97331 7.65301 8.02664 7.65301 8.06664 7.65967H8.11331C8.93288 7.63233 9.70969 7.28733 10.2795 6.69761C10.8493 6.1079 11.1674 5.3197 11.1666 4.49967C11.1666 2.75301 9.74664 1.33301 7.99997 1.33301ZM11.3866 9.43234C9.52664 8.19234 6.49331 8.19234 4.61997 9.43234C3.77331 9.99901 3.30664 10.7657 3.30664 11.5857C3.30664 12.4057 3.77331 13.1657 4.61331 13.7257C5.54664 14.3523 6.77331 14.6657 7.99997 14.6657C9.22664 14.6657 10.4533 14.3523 11.3866 13.7257C12.2266 13.159 12.6933 12.399 12.6933 11.5723C12.6866 10.7523 12.2266 9.99234 11.3866 9.43234Z" fill="#6B7280"/>
</svg>
