<svg width="20" height="20" viewBox="0 0 20 20" fill="none" xmlns="http://www.w3.org/2000/svg">
<path d="M10.0003 1.66699C5.40032 1.66699 1.66699 5.40032 1.66699 10.0003C1.66699 14.6003 5.40032 18.3337 10.0003 18.3337C14.6003 18.3337 18.3337 14.6003 18.3337 10.0003C18.3337 5.40032 14.6003 1.66699 10.0003 1.66699ZM14.8753 11.7503C14.842 11.8253 14.8003 11.892 14.742 11.9503L12.2087 14.4837C12.0837 14.6087 11.9253 14.667 11.767 14.667C11.6087 14.667 11.4503 14.6087 11.3253 14.4837C11.2091 14.366 11.1439 14.2073 11.1439 14.042C11.1439 13.8766 11.2091 13.7179 11.3253 13.6003L12.792 12.1337H5.70866C5.36699 12.1337 5.08366 11.8503 5.08366 11.5087C5.08366 11.167 5.36699 10.8837 5.70866 10.8837H14.3003C14.3837 10.8837 14.4587 10.9003 14.542 10.9337C14.692 11.0003 14.817 11.117 14.8837 11.2753C14.9337 11.4253 14.9337 11.6003 14.8753 11.7503ZM14.292 9.10866H5.70866C5.62532 9.10866 5.54199 9.09199 5.46699 9.05866C5.31353 8.99276 5.19122 8.87045 5.12532 8.71699C5.09236 8.64215 5.07533 8.56127 5.07533 8.47949C5.07533 8.39771 5.09236 8.31683 5.12532 8.24199C5.15866 8.16699 5.20032 8.10032 5.25866 8.04199L7.79199 5.50866C8.03366 5.26699 8.43366 5.26699 8.67532 5.50866C8.91699 5.75032 8.91699 6.15032 8.67532 6.39199L7.21699 7.85866H14.3003C14.642 7.85866 14.9253 8.14199 14.9253 8.48366C14.9253 8.82532 14.642 9.10866 14.292 9.10866Z" fill="#F2761B"/>
</svg>
