<svg width="16" height="16" viewBox="0 0 16 16" fill="none" xmlns="http://www.w3.org/2000/svg">
<g clip-path="url(#clip0_5_5232)">
<path d="M14.4 0.666664H1.6C0.7176 0.666664 0 1.39755 0 2.29629V13.7037C0 14.6024 0.7176 15.3333 1.6 15.3333H14.4C15.2824 15.3333 16 14.6024 16 13.7037V2.29629C16 1.39755 15.2824 0.666664 14.4 0.666664ZM8.4 3.11111C8.8416 3.11111 9.2 3.47615 9.2 3.92592C9.2 4.3757 8.8416 4.74074 8.4 4.74074C7.9584 4.74074 7.6 4.3757 7.6 3.92592C7.6 3.47615 7.9584 3.11111 8.4 3.11111ZM6 3.11111C6.4416 3.11111 6.8 3.47615 6.8 3.92592C6.8 4.3757 6.4416 4.74074 6 4.74074C5.5584 4.74074 5.2 4.3757 5.2 3.92592C5.2 3.47615 5.5584 3.11111 6 3.11111ZM3.6 3.11111C4.0416 3.11111 4.4 3.47615 4.4 3.92592C4.4 4.3757 4.0416 4.74074 3.6 4.74074C3.1584 4.74074 2.8 4.3757 2.8 3.92592C2.8 3.47615 3.1584 3.11111 3.6 3.11111ZM1.6 13.7037V7.18518H14.4008L14.4016 13.7037H1.6Z" fill="#F9FAFB"/>
</g>
<defs>
<clipPath id="clip0_5_5232">
<rect width="16" height="16" fill="white"/>
</clipPath>
</defs>
</svg>
